# xmcd
#
# Track frame offsets:
#	150
#	16310
#	31813
#	50321
#	65386
#
# Disc length: 1161 seconds
# Revision: 0
# Processed by: cddbd v1.5.2PL0 Copyright (c) Steve Scherf et al.
# Submitted via: dBpowerAMP V12.0
#
DISCID=33048705
DTITLE=Ray Goren - Save My Soul
DYEAR=2014
DGENRE=Blues Rock
TTITLE0=Stop
TTITLE1=Save My Soul
TTITLE2=Can't Live Like This
TTITLE3=I Need You Here to Stay
TTITLE4=Rise Together
EXTD=
EXTT0=
EXTT1=
EXTT2=
EXTT3=
EXTT4=
PLAYORDER=
